<svg width="19" height="14" viewBox="0 0 19 14" fill="none" xmlns="http://www.w3.org/2000/svg">
<path id="Vector" d="M15.4683 1.1824C17.5289 4.23337 18.5464 7.67479 18.166 11.6366C18.1644 11.6534 18.1558 11.6688 18.1421 11.6789C16.5817 12.8328 15.0699 13.533 13.5793 13.9974C13.5677 14.001 13.5553 14.0008 13.5438 13.9969C13.5323 13.993 13.5223 13.9855 13.5153 13.9756C13.1709 13.4931 12.858 12.9844 12.5839 12.4501C12.5681 12.4187 12.5825 12.3808 12.6149 12.3684C13.1118 12.1798 13.5844 11.9538 14.0389 11.6862C14.0747 11.6651 14.077 11.6134 14.0439 11.5886C13.9474 11.5165 13.8519 11.4407 13.7604 11.3649C13.7433 11.3509 13.7203 11.3482 13.7009 11.3576C10.7501 12.7299 7.51757 12.7299 4.53184 11.3576C4.51245 11.3489 4.48942 11.3518 4.47277 11.3656C4.38155 11.4414 4.28576 11.5165 4.19021 11.5886C4.15714 11.6134 4.15987 11.6651 4.19591 11.6862C4.65043 11.9488 5.12296 12.1798 5.61922 12.3693C5.65137 12.3817 5.66665 12.4187 5.65069 12.4501C5.38249 12.985 5.0696 13.4938 4.71884 13.9763C4.70356 13.9958 4.67848 14.0048 4.65476 13.9974C3.17124 13.533 1.65945 12.8328 0.0990763 11.6789C0.086077 11.6688 0.0767267 11.6527 0.0753583 11.636C-0.242554 8.20901 0.405358 4.73911 2.77055 1.18171C2.77625 1.1723 2.78491 1.16495 2.79495 1.16058C3.95873 0.622692 5.20552 0.226966 6.50864 0.000968189C6.53236 -0.00270657 6.55608 0.00831771 6.56839 0.0294476C6.7294 0.316538 6.91344 0.684703 7.03796 0.985575C8.41156 0.774276 9.80659 0.774276 11.2089 0.985575C11.3334 0.691134 11.5111 0.316538 11.6714 0.0294476C11.6771 0.0189653 11.686 0.0105674 11.6967 0.00545295C11.7074 0.000338472 11.7195 -0.00123114 11.7312 0.000968189C13.035 0.227655 14.2818 0.623381 15.4446 1.16058C15.4549 1.16495 15.4633 1.1723 15.4683 1.1824ZM7.73628 7.69822C7.75064 6.68513 7.01721 5.84682 6.09654 5.84682C5.1834 5.84682 4.45703 6.67778 4.45703 7.69822C4.45703 8.71842 5.19776 9.54938 6.09654 9.54938C7.00991 9.54938 7.73628 8.71842 7.73628 7.69822ZM13.7985 7.69822C13.8129 6.68513 13.0794 5.84682 12.159 5.84682C11.2456 5.84682 10.5193 6.67778 10.5193 7.69822C10.5193 8.71842 11.26 9.54938 12.159 9.54938C13.0794 9.54938 13.7985 8.71842 13.7985 7.69822Z" fill="#B3B3B3"/>
</svg>
