<svg width="15" height="14" viewBox="0 0 15 14" fill="none" xmlns="http://www.w3.org/2000/svg">
<path id="Vector" d="M7.41836 0C6.47628 0 5.54343 0.185556 4.67307 0.546072C3.8027 0.906589 3.01187 1.43501 2.34572 2.10115C1.00038 3.4465 0.244568 5.27118 0.244568 7.17379C0.244568 10.3446 2.30345 13.0348 5.15144 13.9889C5.51013 14.0463 5.62491 13.8239 5.62491 13.6302V12.4178C3.63777 12.8483 3.21452 11.4565 3.21452 11.4565C2.88452 10.6244 2.41823 10.402 2.41823 10.402C1.76541 9.95722 2.46844 9.97157 2.46844 9.97157C3.18582 10.0218 3.56603 10.7105 3.56603 10.7105C4.19015 11.8009 5.2447 11.4781 5.6536 11.3059C5.71817 10.8396 5.90469 10.5239 6.10555 10.3446C4.51297 10.1653 2.84148 9.54831 2.84148 6.8151C2.84148 6.01881 3.11408 5.38034 3.58038 4.871C3.50864 4.69166 3.25756 3.94558 3.65212 2.97712C3.65212 2.97712 4.25472 2.78343 5.62491 3.70885C6.19164 3.55103 6.80858 3.47211 7.41836 3.47211C8.02813 3.47211 8.64507 3.55103 9.2118 3.70885C10.582 2.78343 11.1846 2.97712 11.1846 2.97712C11.5792 3.94558 11.3281 4.69166 11.2563 4.871C11.7226 5.38034 11.9952 6.01881 11.9952 6.8151C11.9952 9.55549 10.3166 10.1581 8.71681 10.3374C8.97507 10.5598 9.2118 10.9974 9.2118 11.6646V13.6302C9.2118 13.8239 9.32658 14.0535 9.69245 13.9889C12.5404 13.0276 14.5921 10.3446 14.5921 7.17379C14.5921 6.23171 14.4066 5.29886 14.0461 4.4285C13.6856 3.55813 13.1571 2.7673 12.491 2.10115C11.8248 1.43501 11.034 0.906589 10.1636 0.546072C9.29328 0.185556 8.36043 0 7.41836 0Z" fill="#B3B3B3"/>
</svg>
