<svg width="15" height="14" viewBox="0 0 15 14" fill="none" xmlns="http://www.w3.org/2000/svg">
<g id="Group">
<path id="Vector" d="M5.19994 2.79565C6.31385 2.79565 7.38213 3.21708 8.16979 3.96723C8.95744 4.71737 9.39994 5.73479 9.39994 6.79565C9.39994 7.85652 8.95744 8.87394 8.16979 9.62408C7.38213 10.3742 6.31385 10.7957 5.19994 10.7957C4.08603 10.7957 3.01774 10.3742 2.23009 9.62408C1.44244 8.87394 0.999939 7.85652 0.999939 6.79565C0.999939 5.73479 1.44244 4.71737 2.23009 3.96723C3.01774 3.21708 4.08603 2.79565 5.19994 2.79565ZM11.4999 3.46232C12.5499 3.46232 13.2499 4.95499 13.2499 6.79565C13.2499 8.63632 12.5499 10.129 11.4999 10.129C10.4499 10.129 9.74994 8.63632 9.74994 6.79565C9.74994 4.95499 10.4499 3.46232 11.4999 3.46232ZM14.2999 3.79565C14.5659 3.79565 14.7983 4.34699 14.9159 5.29299L14.9488 5.58832L14.9621 5.74499L14.9831 6.07432L14.9901 6.24699L14.9985 6.60765L14.9999 6.79565L14.9985 6.98365L14.9901 7.34432L14.9831 7.51765L14.9621 7.84632L14.9481 8.00299L14.9166 8.29832C14.7983 9.24499 14.5666 9.79565 14.2999 9.79565C14.0339 9.79565 13.8015 9.24432 13.6839 8.29832L13.651 8.00299C13.6462 7.9508 13.6418 7.89857 13.6377 7.84632L13.6167 7.51699C13.614 7.45945 13.6117 7.40189 13.6097 7.34432L13.6013 6.98365V6.60765L13.6097 6.24699L13.6167 6.07365L13.6377 5.74499L13.6517 5.58832L13.6832 5.29299C13.8015 4.34632 14.0332 3.79565 14.2999 3.79565Z" fill="#B3B3B3"/>
</g>
</svg>
