<svg width="17" height="14" viewBox="0 0 17 14" fill="none" xmlns="http://www.w3.org/2000/svg">
<path id="Vector" d="M16.893 1.68179C16.3441 1.91822 15.767 2.08285 15.1761 2.17163C15.4524 2.12423 15.8589 1.62648 16.0207 1.42501C16.2666 1.12112 16.4539 0.774195 16.5733 0.401871C16.5733 0.374218 16.6009 0.334714 16.5733 0.314963C16.5594 0.307356 16.5437 0.30337 16.5279 0.30337C16.512 0.30337 16.4964 0.307356 16.4825 0.314963C15.8408 0.662761 15.1579 0.92821 14.4499 1.10503C14.4252 1.11258 14.3989 1.11326 14.3739 1.10699C14.3489 1.10073 14.326 1.08776 14.3078 1.06948C14.2527 1.0038 14.1933 0.941778 14.1302 0.883814C13.8414 0.624848 13.5138 0.412895 13.1593 0.255707C12.6807 0.0592076 12.1638 -0.0258921 11.6476 0.0068349C11.1467 0.0384962 10.6577 0.172962 10.211 0.401871C9.77103 0.643207 9.38439 0.97107 9.07427 1.36576C8.74805 1.77199 8.51254 2.24344 8.38357 2.74838C8.27722 3.22869 8.26515 3.7251 8.34805 4.21001C8.34805 4.29297 8.34805 4.30482 8.277 4.29297C5.4629 3.87818 3.15399 2.87874 1.2674 0.7337C1.18452 0.638892 1.1411 0.638892 1.07401 0.7337C0.253062 1.98201 0.651693 3.95719 1.67787 4.93293C1.81601 5.06329 1.9581 5.1897 2.10808 5.30821C1.63758 5.27478 1.17858 5.14717 0.758258 4.93293C0.679321 4.88157 0.635906 4.90923 0.631959 5.00403C0.620771 5.13548 0.620771 5.26763 0.631959 5.39907C0.714312 6.02899 0.962341 6.62572 1.35068 7.12824C1.73902 7.63075 2.25374 8.02102 2.84219 8.25913C2.98564 8.32063 3.13512 8.36697 3.28819 8.39739C2.85262 8.48322 2.4059 8.49657 1.96599 8.4369C1.87127 8.41714 1.83575 8.4685 1.87127 8.55936C2.45146 10.1395 3.7105 10.6214 4.63406 10.8901C4.76036 10.9098 4.88666 10.9098 5.02875 10.9414C5.02875 10.9414 5.02875 10.9414 5.00507 10.9651C4.73273 11.4629 3.63156 11.7986 3.12637 11.9725C2.20425 12.304 1.22111 12.4307 0.245168 12.3438C0.0912408 12.3201 0.0557192 12.324 0.0162507 12.3438C-0.0232178 12.3635 0.0162507 12.407 0.059666 12.4465C0.257008 12.5769 0.454351 12.6914 0.659587 12.802C1.27058 13.1356 1.91652 13.4006 2.58565 13.5921C6.05098 14.5481 9.95047 13.8449 12.5514 11.2574C14.5959 9.22697 15.3142 6.42616 15.3142 3.62141C15.3142 3.51475 15.4445 3.45155 15.5195 3.39624C16.0367 2.99287 16.4927 2.51649 16.8732 1.98201C16.9391 1.90234 16.9729 1.8009 16.968 1.69759C16.968 1.63833 16.968 1.65018 16.893 1.68179Z" fill="#B3B3B3"/>
</svg>
